<svg xmlns="http://www.w3.org/2000/svg" xmlns:xlink="http://www.w3.org/1999/xlink" width="50" height="50" viewBox="0 0 50 50">
  <defs>
    <clipPath id="clip-path">
      <rect id="Rectángulo_3" data-name="Rectángulo 3" width="50" height="50" transform="translate(982 151)" fill="#fff" stroke="#707070" stroke-width="1"/>
    </clipPath>
  </defs>
  <g id="coffe-icon" transform="translate(-982 -151)" clip-path="url(#clip-path)">
    <g id="cup-of-coffe-with-heart" transform="translate(982 153.675)">
      <path id="Trazado_1" data-name="Trazado 1" d="M49.9,36.688a1.174,1.174,0,0,0-1.078-.707H38.187a18.157,18.157,0,0,0,2.9-4.129,17.868,17.868,0,0,0,1.967-8.2,1.174,1.174,0,0,0-1.174-1.174H8.115a1.174,1.174,0,0,0-1.174,1.174c0,.488.021.972.058,1.452H4.068a2.942,2.942,0,0,0-2.942,2.942,5.6,5.6,0,0,0,5.6,5.6H9.957a18.287,18.287,0,0,0,1.856,2.341H1.174a1.174,1.174,0,0,0-.857,1.977,11.9,11.9,0,0,0,8.649,3.748H41.033a11.9,11.9,0,0,0,8.649-3.748A1.174,1.174,0,0,0,49.9,36.688ZM3.475,28.042a.593.593,0,0,1,.593-.593H7.339a17.808,17.808,0,0,0,1.3,3.843H6.723A3.253,3.253,0,0,1,3.475,28.042Zm5.857-3.22H40.667A15.562,15.562,0,0,1,34.73,35.981H15.269A15.562,15.562,0,0,1,9.332,24.822Zm31.7,14.536H8.967A9.523,9.523,0,0,1,4.673,38.33H45.327A9.521,9.521,0,0,1,41.033,39.358Z" transform="translate(0 2.943)" fill="#fff" stroke="#707070" stroke-width="0.094"/>
      <path id="Trazado_2" data-name="Trazado 2" d="M14.455,14.823l6,2.842a5.3,5.3,0,0,1,3.035,4.614,1.174,1.174,0,0,0,1.173,1.133H24.7A1.174,1.174,0,0,0,25.834,22.2a7.637,7.637,0,0,0-4.376-6.654l-6-2.842a4.117,4.117,0,0,1,3.527-7.44,1.174,1.174,0,0,0,1.006-2.122,6.466,6.466,0,1,0-5.539,11.685Z" transform="translate(2.69 -2.047)" fill="#fff" stroke="#707070" stroke-width="0.094"/>
      <path id="Trazado_3" data-name="Trazado 3" d="M22.18,5.64A4.117,4.117,0,0,1,27.9,11.559l-4.229,3.963a1.174,1.174,0,0,0,1.606,1.714l4.235-3.97.012-.012a6.466,6.466,0,0,0-8.98-9.3A1.174,1.174,0,1,0,22.18,5.64Z" transform="translate(5.048 -2.14)" fill="#fff" stroke="#707070" stroke-width="0.094"/>
      <path id="Trazado_4" data-name="Trazado 4" d="M19.521,18.773A1.174,1.174,0,1,0,18.239,16.8a3.922,3.922,0,0,0-1.676,4.157l.125.54a1.174,1.174,0,1,0,2.288-.529l-.125-.54A1.566,1.566,0,0,1,19.521,18.773Z" transform="translate(4.116 1.479)" fill="#fff" stroke="#707070" stroke-width="0.094"/>
    </g>
  </g>
</svg>
