<svg xmlns="http://www.w3.org/2000/svg" xmlns:xlink="http://www.w3.org/1999/xlink" width="50" height="50" viewBox="0 0 50 50">
  <defs>
    <clipPath id="clip-path">
      <rect id="Rectángulo_8" data-name="Rectángulo 8" width="50" height="50" fill="#fff" stroke="#707070" stroke-width="1"/>
    </clipPath>
  </defs>
  <g id="correo-icon" clip-path="url(#clip-path)">
    <g id="contact_mail-24px">
      <path id="Trazado_7" data-name="Trazado 7" d="M0,0H50V50H0Z" fill="none"/>
      <path id="Trazado_8" data-name="Trazado 8" d="M43.75,16.667V14.583L37.5,18.75l-6.25-4.167v2.083l6.25,4.167ZM45.833,6.25H4.167A4.179,4.179,0,0,0,0,10.417V39.583A4.179,4.179,0,0,0,4.167,43.75H45.833a4.161,4.161,0,0,0,4.146-4.167L50,10.417A4.179,4.179,0,0,0,45.833,6.25ZM16.667,12.5a6.25,6.25,0,1,1-6.25,6.25A6.242,6.242,0,0,1,16.667,12.5Zm12.5,25h-25V35.417c0-4.167,8.333-6.458,12.5-6.458s12.5,2.292,12.5,6.458ZM45.833,25H29.167V12.5H45.833Z"/>
      <path id="Trazado_9" data-name="Trazado 9" d="M0,0H50V50H0Z" fill="none"/>
    </g>
  </g>
</svg>
