<svg xmlns="http://www.w3.org/2000/svg" xmlns:xlink="http://www.w3.org/1999/xlink" width="50" height="50" viewBox="0 0 50 50">
  <defs>
    <clipPath id="clip-path">
      <rect id="Rectángulo_11" data-name="Rectángulo 11" width="50" height="50" fill="#fff" stroke="#707070" stroke-width="1"/>
    </clipPath>
  </defs>
  <g id="linkedin-icon" clip-path="url(#clip-path)">
    <g id="_001-linkedin-sign" data-name="001-linkedin-sign" transform="translate(0)">
      <path id="Trazado_15" data-name="Trazado 15" d="M47.249,2.75A9.028,9.028,0,0,0,40.625,0H9.375A9.031,9.031,0,0,0,2.751,2.75,9.031,9.031,0,0,0,0,9.375v31.25a9.032,9.032,0,0,0,2.75,6.625A9.03,9.03,0,0,0,9.375,50h31.25A9.392,9.392,0,0,0,50,40.625V9.375A9.032,9.032,0,0,0,47.249,2.75ZM15.235,41.862H7.715V19.27h7.52V41.862Zm-.683-26.774a4.282,4.282,0,0,1-3.093,1.123h-.033a4.138,4.138,0,0,1-3.011-1.123A3.724,3.724,0,0,1,7.259,12.3a3.663,3.663,0,0,1,1.188-2.8A4.334,4.334,0,0,1,11.524,8.4a4.16,4.16,0,0,1,3.027,1.107,3.848,3.848,0,0,1,1.172,2.8A3.7,3.7,0,0,1,14.551,15.088ZM42.285,41.862h-7.52V29.785q0-5.11-3.776-5.111a3.683,3.683,0,0,0-2.409.8,5.01,5.01,0,0,0-1.465,1.937,5.37,5.37,0,0,0-.228,1.822v12.63h-7.52q.1-20.442,0-22.591h7.52V22.46a7.552,7.552,0,0,1,6.738-3.711,8.149,8.149,0,0,1,6.283,2.572q2.376,2.572,2.376,7.584V41.862h0Z" transform="translate(0)"/>
    </g>
  </g>
</svg>
