<svg xmlns="http://www.w3.org/2000/svg" xmlns:xlink="http://www.w3.org/1999/xlink" width="50" height="50" viewBox="0 0 50 50">
  <defs>
    <clipPath id="clip-path">
      <rect id="Rectángulo_7" data-name="Rectángulo 7" width="50" height="50" fill="#fff" stroke="#707070" stroke-width="1"/>
    </clipPath>
  </defs>
  <g id="lugar" clip-path="url(#clip-path)">
    <g id="person_pin-24px">
      <path id="Trazado_5" data-name="Trazado 5" d="M25,4.167a18.74,18.74,0,0,0-4.812,36.854L25,45.833l4.812-4.812A18.74,18.74,0,0,0,25,4.167Zm0,4.167a6.25,6.25,0,1,1-6.25,6.25A6.242,6.242,0,0,1,25,8.333Zm0,29.792a15,15,0,0,1-12.5-6.708C12.563,27.271,20.833,25,25,25c4.146,0,12.437,2.271,12.5,6.417A15,15,0,0,1,25,38.125Z"/>
      <path id="Trazado_6" data-name="Trazado 6" d="M0,0H50V50H0Z" fill="none"/>
    </g>
  </g>
</svg>
