<svg xmlns="http://www.w3.org/2000/svg" xmlns:xlink="http://www.w3.org/1999/xlink" width="50" height="50" viewBox="0 0 50 50"><defs><style>.a{fill:#fff;stroke:#707070;}.b{clip-path:url(#a);}.c{fill:none;}</style><clipPath id="a"><rect class="a" width="50" height="50"/></clipPath></defs><g class="b"><path class="c" d="M0,0H50V50H0Z"/><path d="M43.75,16.667V14.583L37.5,18.75l-6.25-4.167v2.083l6.25,4.167ZM45.833,6.25H4.167A4.179,4.179,0,0,0,0,10.417V39.583A4.179,4.179,0,0,0,4.167,43.75H45.833a4.161,4.161,0,0,0,4.146-4.167L50,10.417A4.179,4.179,0,0,0,45.833,6.25ZM16.667,12.5a6.25,6.25,0,1,1-6.25,6.25A6.242,6.242,0,0,1,16.667,12.5Zm12.5,25h-25V35.417c0-4.167,8.333-6.458,12.5-6.458s12.5,2.292,12.5,6.458ZM45.833,25H29.167V12.5H45.833Z"/><path class="c" d="M0,0H50V50H0Z"/></g></svg>