<svg xmlns="http://www.w3.org/2000/svg" xmlns:xlink="http://www.w3.org/1999/xlink" width="50" height="50" viewBox="0 0 50 50"><defs><style>.a{fill:#fff;stroke:#707070;}.b{clip-path:url(#a);}</style><clipPath id="a"><rect class="a" width="50" height="50"/></clipPath></defs><g class="b"><g transform="translate(0 3.846)"><path d="M45.912,15.445a15.86,15.86,0,0,0,.812-5.048,14.452,14.452,0,0,0-1.533-6.551,13.083,13.083,0,0,0-5.679,1.172,31.361,31.361,0,0,0-5.618,3.636,35.619,35.619,0,0,0-8.413-.961A39.971,39.971,0,0,0,16.2,8.744a32.236,32.236,0,0,0-5.679-3.711A13.007,13.007,0,0,0,4.808,3.846,14.449,14.449,0,0,0,3.276,10.4,16.222,16.222,0,0,0,4.087,15.5,17.665,17.665,0,0,0,0,27.4q0,6.251,1.863,9.946a12.5,12.5,0,0,0,2.584,3.455A13.294,13.294,0,0,0,8.083,43.24,31.663,31.663,0,0,0,12.2,44.787a26.661,26.661,0,0,0,4.582.9q2.509.287,4.432.377t4.267.09q2.764,0,5.018-.135a44.192,44.192,0,0,0,5.153-.661,25.717,25.717,0,0,0,5.109-1.428A16.27,16.27,0,0,0,45,41.347a12.119,12.119,0,0,0,3.17-4A22.734,22.734,0,0,0,50,27.4,17.827,17.827,0,0,0,45.912,15.445Zm-3.6,21.86a8.517,8.517,0,0,1-2.434,3.1,11.616,11.616,0,0,1-3.666,1.8A22.088,22.088,0,0,1,32,43.089a43.322,43.322,0,0,1-4.478.21H22.475A43.311,43.311,0,0,1,18,43.089a22.085,22.085,0,0,1-4.207-.886,11.617,11.617,0,0,1-3.666-1.8,8.513,8.513,0,0,1-2.434-3.1,10.4,10.4,0,0,1-.962-4.612A9.34,9.34,0,0,1,8.8,26.562a6.888,6.888,0,0,1,5.619-2.524,57.762,57.762,0,0,1,5.86.631A30.948,30.948,0,0,0,25,25a30.9,30.9,0,0,0,4.717-.33q4.628-.631,5.86-.631A6.889,6.889,0,0,1,41.2,26.562a9.341,9.341,0,0,1,2.073,6.13A10.4,10.4,0,0,1,42.308,37.3Z" transform="translate(0 -3.846)"/><path d="M17.563,27.944a2.833,2.833,0,0,0-4.357,0,5.918,5.918,0,0,0-1.292,2.283,8.269,8.269,0,0,0,0,4.929,5.9,5.9,0,0,0,1.292,2.283,2.833,2.833,0,0,0,4.357,0,5.912,5.912,0,0,0,1.292-2.283,8.269,8.269,0,0,0,0-4.929A5.92,5.92,0,0,0,17.563,27.944Z" transform="translate(0 -3.846)"/><path d="M36.794,27.944a2.833,2.833,0,0,0-4.357,0,5.91,5.91,0,0,0-1.291,2.283,8.258,8.258,0,0,0,0,4.929,5.907,5.907,0,0,0,1.291,2.283,2.832,2.832,0,0,0,4.357,0,5.922,5.922,0,0,0,1.292-2.283,8.274,8.274,0,0,0,0-4.929A5.931,5.931,0,0,0,36.794,27.944Z" transform="translate(0 -3.846)"/></g></g></svg>