<svg xmlns="http://www.w3.org/2000/svg" xmlns:xlink="http://www.w3.org/1999/xlink" width="50" height="50" viewBox="0 0 50 50"><defs><style>.a{fill:#fff;stroke:#707070;}.b{clip-path:url(#a);}.c{fill:none;}</style><clipPath id="a"><rect class="a" width="50" height="50"/></clipPath></defs><g class="b"><path d="M25,4.167a18.74,18.74,0,0,0-4.812,36.854L25,45.833l4.812-4.812A18.74,18.74,0,0,0,25,4.167Zm0,4.167a6.25,6.25,0,1,1-6.25,6.25A6.242,6.242,0,0,1,25,8.333Zm0,29.792a15,15,0,0,1-12.5-6.708C12.563,27.271,20.833,25,25,25c4.146,0,12.437,2.271,12.5,6.417A15,15,0,0,1,25,38.125Z"/><path class="c" d="M0,0H50V50H0Z"/></g></svg>